M48
;Layer_Color=9474304
;FILE_FORMAT=2:3
INCH,LZ
;TYPE=PLATED
T1F00S00C0.024
T2F00S00C0.031
T3F00S00C0.035
T4F00S00C0.114
%
T01
X01Y-02
X0105
Y-0195
Y-019
Y-0185
X01
Y-019
Y-0195
Y-018
X0105
T02
X0075Y-025
Y-024
Y-023
X00675
Y-022
X0075
Y-021
X00675
Y-02
X0075
Y-019
X00675
X0075Y-018
Y-017
Y-016
Y-015
Y-014
Y-013
Y-012
X0065
X008Y-0125
Y-0135
Y-0145
Y-0155
Y-0165
Y-0175
Y-0185
Y-0195
Y-0205
Y-0215
Y-0225
Y-0235
Y-0245
Y-0255
X002
X0015Y-025
Y-024
Y-023
Y-022
Y-021
Y-02
Y-019
Y-018
Y-017
Y-016
Y-015
Y-014
Y-013
Y-012
X0025
X0035
X0045
X0055
X002Y-0125
Y-0135
Y-0145
Y-0155
Y-0165
Y-0175
Y-0185
Y-0195
Y-0205
Y-0215
Y-0225
Y-0235
Y-0245
X003
X004Y-0195
Y-0185
Y-0175
Y-0165
X005
Y-0175
Y-0185
Y-0195
X002Y-0115
Y-0105
Y-0095
Y-0085
Y-0075
X003
X004
X005
X002Y-0065
Y-0055
Y-0045
Y-0035
Y-0025
X008
Y-0035
Y-0045
Y-0055
Y-0065
Y-0075
X007
X006
X008Y-0085
Y-0095
Y-0105
Y-0115
T03
X01Y-012
Y-011
Y-01
Y-0045
Y-0035
Y-0025
T04
X0109Y-02696
X0009Y-027
Y-0009
X0109Y-00091
M30
