G04 Layer_Physical_Order=1*
G04 Layer_Color=255*
%FSLAX25Y25*%
%MOIN*%
G70*
G01*
G75*
%ADD10R,0.05000X0.06000*%
%ADD11C,0.02000*%
%ADD12C,0.03543*%
%ADD13C,0.05118*%
%ADD14R,0.05906X0.05906*%
%ADD15C,0.05906*%
%ADD16C,0.04200*%
G36*
X87431Y-21056D02*
Y-150000D01*
X87625Y-150976D01*
X88178Y-151802D01*
X102431Y-166056D01*
Y-173864D01*
X95374D01*
X94789Y-173981D01*
X94293Y-174312D01*
X93961Y-174808D01*
X93845Y-175394D01*
Y-177752D01*
X93178Y-178198D01*
X88178Y-183198D01*
X87625Y-184025D01*
X87431Y-185000D01*
Y-263944D01*
X83925Y-267451D01*
X68536D01*
X56783Y-255698D01*
X47529Y-246444D01*
Y-229500D01*
X48980D01*
Y-227549D01*
X54980D01*
X55956Y-227355D01*
X56783Y-226802D01*
X61296Y-222289D01*
X61758Y-222480D01*
Y-234252D01*
X61874Y-234837D01*
X62206Y-235333D01*
X62702Y-235665D01*
X63287Y-235781D01*
X69411D01*
Y-244685D01*
X69527Y-245270D01*
X69858Y-245766D01*
X70355Y-246098D01*
X70940Y-246214D01*
X73513D01*
X73612Y-246714D01*
X73185Y-246891D01*
X72442Y-247462D01*
X71872Y-248205D01*
X71542Y-249000D01*
X74980D01*
Y-251000D01*
X71542D01*
X71872Y-251795D01*
X72442Y-252538D01*
X73185Y-253109D01*
X74051Y-253467D01*
X74963Y-253588D01*
X76393Y-255017D01*
X76513Y-255929D01*
X76872Y-256795D01*
X77442Y-257538D01*
X78185Y-258109D01*
X78980Y-258438D01*
Y-255000D01*
X79980D01*
Y-254000D01*
X83418D01*
X83089Y-253205D01*
X82519Y-252462D01*
X81775Y-251891D01*
X80909Y-251533D01*
X79998Y-251413D01*
X78568Y-249983D01*
X78480Y-249313D01*
X78912Y-248951D01*
X78921Y-248955D01*
X79980Y-249094D01*
X81040Y-248955D01*
X82027Y-248546D01*
X82875Y-247895D01*
X83526Y-247047D01*
X83898Y-246148D01*
X84148Y-246098D01*
X84644Y-245766D01*
X84976Y-245270D01*
X85092Y-244685D01*
Y-110925D01*
X85087Y-110900D01*
X85338Y-110526D01*
X85454Y-109941D01*
Y-20374D01*
X85338Y-19789D01*
X85096Y-19428D01*
X85485Y-19109D01*
X87431Y-21056D01*
D02*
G37*
G36*
X48921Y-181045D02*
X47933Y-181454D01*
X47085Y-182105D01*
X46435Y-182953D01*
X46285Y-183315D01*
X45785Y-183215D01*
Y-180565D01*
X48829D01*
X48921Y-181045D01*
D02*
G37*
G36*
X101507Y-7972D02*
X101843Y-8343D01*
X101768Y-9098D01*
X101907Y-10512D01*
X102320Y-11870D01*
X102989Y-13123D01*
X103890Y-14220D01*
X104988Y-15121D01*
X106240Y-15791D01*
X107599Y-16203D01*
X109012Y-16342D01*
X109767Y-16268D01*
X110138Y-16603D01*
Y-87533D01*
X110030Y-87989D01*
X109638Y-87989D01*
X93405D01*
Y-93198D01*
X109638D01*
X110030Y-93198D01*
X110138Y-93653D01*
Y-173472D01*
X109638Y-173882D01*
X109547Y-173864D01*
X107529D01*
Y-165000D01*
X107335Y-164024D01*
X106783Y-163198D01*
X92529Y-148944D01*
Y-20000D01*
X92335Y-19025D01*
X91783Y-18198D01*
X86783Y-13198D01*
X85956Y-12645D01*
X84980Y-12451D01*
X39980D01*
X39005Y-12645D01*
X38178Y-13198D01*
X28178Y-23198D01*
X27625Y-24024D01*
X27431Y-25000D01*
Y-71840D01*
X27085Y-72105D01*
X26435Y-72953D01*
X26144Y-73656D01*
X25644Y-73556D01*
Y-21161D01*
X25527Y-20576D01*
X25196Y-20080D01*
X24699Y-19748D01*
X24114Y-19632D01*
X15748D01*
X15163Y-19748D01*
X14667Y-20080D01*
X14335Y-20576D01*
X14219Y-21161D01*
Y-109512D01*
X14335Y-110098D01*
X14667Y-110594D01*
X15163Y-110925D01*
X15748Y-111042D01*
X18978D01*
X19051Y-111533D01*
X18185Y-111891D01*
X17442Y-112462D01*
X16872Y-113205D01*
X16542Y-114000D01*
X19980D01*
X23418D01*
X23089Y-113205D01*
X22519Y-112462D01*
X21775Y-111891D01*
X20909Y-111533D01*
X20983Y-111042D01*
X24114D01*
X24699Y-110925D01*
X25196Y-110594D01*
X25527Y-110098D01*
X25644Y-109512D01*
Y-76444D01*
X26144Y-76344D01*
X26435Y-77047D01*
X27085Y-77895D01*
X27933Y-78546D01*
X28921Y-78955D01*
X29980Y-79094D01*
X31040Y-78955D01*
X32027Y-78546D01*
X32875Y-77895D01*
X33526Y-77047D01*
X33935Y-76060D01*
X34074Y-75000D01*
X33935Y-73940D01*
X33526Y-72953D01*
X32875Y-72105D01*
X32529Y-71840D01*
Y-26056D01*
X41036Y-17549D01*
X83925D01*
X85189Y-18814D01*
X84870Y-19202D01*
X84510Y-18961D01*
X83925Y-18845D01*
X75886D01*
X75301Y-18961D01*
X74804Y-19293D01*
X74473Y-19789D01*
X74356Y-20374D01*
Y-73651D01*
X73856Y-73751D01*
X73526Y-72953D01*
X72875Y-72105D01*
X72027Y-71454D01*
X71040Y-71045D01*
X69980Y-70906D01*
X68921Y-71045D01*
X67933Y-71454D01*
X67085Y-72105D01*
X66435Y-72953D01*
X66026Y-73940D01*
X65886Y-75000D01*
X66026Y-76060D01*
X66435Y-77047D01*
X67085Y-77895D01*
X67933Y-78546D01*
X68921Y-78955D01*
X69980Y-79094D01*
X71040Y-78955D01*
X72027Y-78546D01*
X72875Y-77895D01*
X73526Y-77047D01*
X73856Y-76249D01*
X74356Y-76349D01*
Y-109396D01*
X70940D01*
X70355Y-109512D01*
X69858Y-109844D01*
X69527Y-110340D01*
X69411Y-110925D01*
Y-118840D01*
X68935Y-118940D01*
X68526Y-117953D01*
X67875Y-117105D01*
X67027Y-116454D01*
X66040Y-116045D01*
X64980Y-115906D01*
X63921Y-116045D01*
X62933Y-116454D01*
X62085Y-117105D01*
X61435Y-117953D01*
X61026Y-118940D01*
X60886Y-120000D01*
X61026Y-121060D01*
X61435Y-122047D01*
X62085Y-122895D01*
X62933Y-123546D01*
X63921Y-123955D01*
X64980Y-124094D01*
X66040Y-123955D01*
X67027Y-123546D01*
X67875Y-122895D01*
X68526Y-122047D01*
X68935Y-121060D01*
X69411Y-121160D01*
Y-186406D01*
X68910Y-186740D01*
X68480Y-186562D01*
Y-190000D01*
Y-193438D01*
X68910Y-193260D01*
X69411Y-193594D01*
Y-196406D01*
X68910Y-196740D01*
X68480Y-196562D01*
Y-200000D01*
Y-203438D01*
X68910Y-203260D01*
X69411Y-203594D01*
Y-204925D01*
X63287D01*
X63029Y-204976D01*
X62529Y-204601D01*
Y-195000D01*
X62335Y-194025D01*
X61783Y-193198D01*
X54018Y-185432D01*
X54074Y-185000D01*
X53935Y-183940D01*
X53526Y-182953D01*
X52875Y-182105D01*
X52027Y-181454D01*
X51040Y-181045D01*
X51131Y-180565D01*
X54331D01*
X54916Y-180448D01*
X55412Y-180117D01*
X55744Y-179621D01*
X55860Y-179035D01*
Y-162106D01*
X55744Y-161521D01*
X55412Y-161025D01*
X54916Y-160693D01*
X54331Y-160577D01*
X36417D01*
X35832Y-160693D01*
X35336Y-161025D01*
X35004Y-161521D01*
X34888Y-162106D01*
Y-177051D01*
X34611Y-177466D01*
X34494Y-178051D01*
Y-199311D01*
X34611Y-199896D01*
X34942Y-200393D01*
X35438Y-200724D01*
X36024Y-200840D01*
X44256D01*
X44841Y-200724D01*
X45337Y-200393D01*
X45669Y-199896D01*
X45785Y-199311D01*
Y-186785D01*
X46285Y-186685D01*
X46435Y-187047D01*
X47085Y-187895D01*
X47933Y-188546D01*
X48921Y-188955D01*
X49980Y-189094D01*
X50413Y-189037D01*
X57431Y-196056D01*
Y-218944D01*
X53925Y-222451D01*
X48980D01*
Y-220500D01*
Y-211500D01*
X44256D01*
X32529Y-198992D01*
Y-161056D01*
X56783Y-136802D01*
X57335Y-135976D01*
X57529Y-135000D01*
Y-123160D01*
X57875Y-122895D01*
X58526Y-122047D01*
X58935Y-121060D01*
X59074Y-120000D01*
X58935Y-118940D01*
X58526Y-117953D01*
X57875Y-117105D01*
X57529Y-116840D01*
Y-96056D01*
X61783Y-91802D01*
X62335Y-90975D01*
X62529Y-90000D01*
Y-78160D01*
X62875Y-77895D01*
X63526Y-77047D01*
X63935Y-76060D01*
X64074Y-75000D01*
X63935Y-73940D01*
X63526Y-72953D01*
X62875Y-72105D01*
X62027Y-71454D01*
X61040Y-71045D01*
X59980Y-70906D01*
X58921Y-71045D01*
X57933Y-71454D01*
X57085Y-72105D01*
X56435Y-72953D01*
X56026Y-73940D01*
X55886Y-75000D01*
X56026Y-76060D01*
X56435Y-77047D01*
X57085Y-77895D01*
X57431Y-78160D01*
Y-88944D01*
X53178Y-93198D01*
X52625Y-94024D01*
X52431Y-95000D01*
Y-116840D01*
X52085Y-117105D01*
X51435Y-117953D01*
X51026Y-118940D01*
X50886Y-120000D01*
X51026Y-121060D01*
X51435Y-122047D01*
X52085Y-122895D01*
X52431Y-123160D01*
Y-133944D01*
X28178Y-158198D01*
X27625Y-159025D01*
X27431Y-160000D01*
Y-200000D01*
Y-223944D01*
X24531Y-226845D01*
X24069Y-226654D01*
Y-225043D01*
X24074Y-225000D01*
X24069Y-224957D01*
Y-215043D01*
X24074Y-215000D01*
X24069Y-214957D01*
Y-205043D01*
X24074Y-205000D01*
X24069Y-204957D01*
Y-195043D01*
X24074Y-195000D01*
X24069Y-194957D01*
Y-185043D01*
X24074Y-185000D01*
X24069Y-184957D01*
Y-175043D01*
X24074Y-175000D01*
X24069Y-174957D01*
Y-165043D01*
X24074Y-165000D01*
X24069Y-164957D01*
Y-155043D01*
X24074Y-155000D01*
X24069Y-154957D01*
Y-145043D01*
X24074Y-145000D01*
X24069Y-144957D01*
Y-135043D01*
X24074Y-135000D01*
X24069Y-134957D01*
Y-125043D01*
X24074Y-125000D01*
X24069Y-124957D01*
Y-124353D01*
X24445Y-124024D01*
X24980Y-124094D01*
X26040Y-123955D01*
X27027Y-123546D01*
X27875Y-122895D01*
X28526Y-122047D01*
X28935Y-121060D01*
X29074Y-120000D01*
X28935Y-118940D01*
X28526Y-117953D01*
X27875Y-117105D01*
X27027Y-116454D01*
X26040Y-116045D01*
X24980Y-115906D01*
X23921Y-116045D01*
X23912Y-116049D01*
X23853Y-116000D01*
X19980D01*
X16107D01*
X16049Y-116049D01*
X16040Y-116045D01*
X14980Y-115906D01*
X13921Y-116045D01*
X12933Y-116454D01*
X12085Y-117105D01*
X11435Y-117953D01*
X11026Y-118940D01*
X10886Y-120000D01*
X11026Y-121060D01*
X11069Y-121164D01*
Y-128836D01*
X11026Y-128940D01*
X10886Y-130000D01*
X11026Y-131060D01*
X11069Y-131164D01*
Y-138836D01*
X11026Y-138940D01*
X10886Y-140000D01*
X11026Y-141060D01*
X11069Y-141164D01*
Y-148836D01*
X11026Y-148940D01*
X10886Y-150000D01*
X11026Y-151060D01*
X11069Y-151164D01*
Y-158836D01*
X11026Y-158940D01*
X10886Y-160000D01*
X11026Y-161060D01*
X11069Y-161164D01*
Y-168836D01*
X11026Y-168940D01*
X10886Y-170000D01*
X11026Y-171060D01*
X11069Y-171164D01*
Y-178836D01*
X11026Y-178940D01*
X10886Y-180000D01*
X11026Y-181060D01*
X11069Y-181164D01*
Y-188836D01*
X11026Y-188940D01*
X10886Y-190000D01*
X11026Y-191060D01*
X11069Y-191164D01*
Y-198836D01*
X11026Y-198940D01*
X10886Y-200000D01*
X11026Y-201060D01*
X11069Y-201164D01*
Y-208836D01*
X11026Y-208940D01*
X10886Y-210000D01*
X11026Y-211060D01*
X11069Y-211164D01*
Y-218836D01*
X11026Y-218940D01*
X10886Y-220000D01*
X11026Y-221060D01*
X11069Y-221164D01*
Y-228836D01*
X11026Y-228940D01*
X10886Y-230000D01*
X11026Y-231060D01*
X11069Y-231164D01*
Y-238836D01*
X11026Y-238940D01*
X10886Y-240000D01*
X11026Y-241060D01*
X11069Y-241164D01*
Y-248836D01*
X11026Y-248940D01*
X10886Y-250000D01*
X11026Y-251060D01*
X11069Y-251164D01*
Y-259055D01*
X11186Y-259640D01*
X11517Y-260137D01*
X12013Y-260468D01*
X12598Y-260584D01*
X22539D01*
X23125Y-260468D01*
X23621Y-260137D01*
X23952Y-259640D01*
X24069Y-259055D01*
Y-255043D01*
X24074Y-255000D01*
X24069Y-254957D01*
Y-245043D01*
X24074Y-245000D01*
X24069Y-244957D01*
Y-235043D01*
X24074Y-235000D01*
X24069Y-234957D01*
Y-234516D01*
X31783Y-226802D01*
X32335Y-225975D01*
X32529Y-225000D01*
Y-207126D01*
X32994Y-206942D01*
X40980Y-215460D01*
Y-220500D01*
Y-229500D01*
X42431D01*
Y-247500D01*
X42625Y-248476D01*
X43178Y-249302D01*
X53178Y-259302D01*
X55678Y-261802D01*
X63886Y-270010D01*
X63695Y-270473D01*
X16550Y-270472D01*
X16214Y-270102D01*
X16224Y-270000D01*
X16085Y-268587D01*
X15673Y-267228D01*
X15003Y-265976D01*
X14102Y-264878D01*
X13005Y-263977D01*
X11752Y-263308D01*
X10393Y-262896D01*
X8980Y-262756D01*
X7567Y-262896D01*
X7350Y-262961D01*
X6949Y-262664D01*
X6949Y-16337D01*
X7350Y-16039D01*
X7567Y-16104D01*
X8980Y-16243D01*
X10393Y-16104D01*
X11752Y-15692D01*
X13005Y-15023D01*
X14102Y-14122D01*
X15003Y-13024D01*
X15673Y-11772D01*
X16085Y-10413D01*
X16224Y-9000D01*
X16159Y-8343D01*
X16495Y-7972D01*
X101507Y-7972D01*
D02*
G37*
G36*
X93845Y-185394D02*
Y-204429D01*
X93961Y-205014D01*
X94293Y-205511D01*
X94789Y-205842D01*
X95374Y-205959D01*
X109547D01*
X109638Y-205941D01*
X110138Y-206351D01*
Y-262137D01*
X109767Y-262473D01*
X109012Y-262398D01*
X107599Y-262537D01*
X106240Y-262950D01*
X104988Y-263619D01*
X103890Y-264520D01*
X102989Y-265617D01*
X102320Y-266870D01*
X101907Y-268229D01*
X101768Y-269642D01*
X101814Y-270102D01*
X101478Y-270473D01*
X88766D01*
X88575Y-270010D01*
X91783Y-266802D01*
X92335Y-265975D01*
X92529Y-265000D01*
Y-186056D01*
X93383Y-185202D01*
X93845Y-185394D01*
D02*
G37*
G36*
X93409Y-90711D02*
X93420Y-90842D01*
X93435Y-90970D01*
X93453Y-91094D01*
X93475Y-91210D01*
X93500Y-91319D01*
X93526Y-91425D01*
X93555Y-91520D01*
X93580Y-91607D01*
X93606Y-91687D01*
X93631Y-91752D01*
X93653Y-91811D01*
X93675Y-91858D01*
X93689Y-91891D01*
X93697Y-91913D01*
X93700Y-91920D01*
X93759Y-92033D01*
X93824Y-92138D01*
X93890Y-92237D01*
X93962Y-92328D01*
X94035Y-92411D01*
X94108Y-92491D01*
X94181Y-92561D01*
X94250Y-92623D01*
X94319Y-92681D01*
X94381Y-92728D01*
X94436Y-92772D01*
X94487Y-92804D01*
X94527Y-92830D01*
X94556Y-92852D01*
X94574Y-92863D01*
X94581Y-92866D01*
X94694Y-92925D01*
X94811Y-92976D01*
X94927Y-93019D01*
X95047Y-93059D01*
X95164Y-93088D01*
X95276Y-93117D01*
X95386Y-93139D01*
X95491Y-93158D01*
X95590Y-93168D01*
X95680Y-93179D01*
X95761Y-93187D01*
X95830Y-93194D01*
X95884D01*
X95906Y-93198D01*
X93405D01*
Y-90577D01*
X93409Y-90711D01*
D02*
G37*
G36*
X95775Y-87992D02*
X95648Y-88000D01*
X95524Y-88011D01*
X95411Y-88029D01*
X95306Y-88047D01*
X95207Y-88069D01*
X95113Y-88091D01*
X95029Y-88112D01*
X94956Y-88138D01*
X94891Y-88160D01*
X94832Y-88182D01*
X94785Y-88200D01*
X94749Y-88218D01*
X94720Y-88229D01*
X94705Y-88236D01*
X94698Y-88240D01*
X94581Y-88305D01*
X94476Y-88375D01*
X94374Y-88447D01*
X94279Y-88524D01*
X94192Y-88604D01*
X94115Y-88680D01*
X94042Y-88757D01*
X93977Y-88833D01*
X93922Y-88902D01*
X93871Y-88968D01*
X93828Y-89026D01*
X93795Y-89077D01*
X93770Y-89121D01*
X93748Y-89154D01*
X93737Y-89172D01*
X93733Y-89179D01*
X93675Y-89296D01*
X93624Y-89416D01*
X93580Y-89536D01*
X93544Y-89656D01*
X93511Y-89772D01*
X93486Y-89889D01*
X93464Y-90002D01*
X93446Y-90107D01*
X93435Y-90206D01*
X93424Y-90297D01*
X93416Y-90377D01*
X93409Y-90446D01*
Y-90500D01*
X93405Y-90522D01*
Y-87989D01*
X95906D01*
X95775Y-87992D01*
D02*
G37*
G36*
X110030Y-93198D02*
X95961D01*
X96077Y-93194D01*
X96194Y-93187D01*
X96307Y-93176D01*
X96416Y-93161D01*
X96521Y-93143D01*
X96623Y-93125D01*
X96718Y-93103D01*
X96809Y-93081D01*
X96889Y-93059D01*
X96962Y-93037D01*
X97027Y-93019D01*
X97082Y-93001D01*
X97129Y-92987D01*
X97162Y-92976D01*
X97180Y-92968D01*
X97188Y-92965D01*
X97297Y-92921D01*
X97402Y-92874D01*
X97500Y-92826D01*
X97588Y-92779D01*
X97672Y-92732D01*
X97748Y-92688D01*
X97817Y-92644D01*
X97879Y-92604D01*
X97934Y-92564D01*
X97981Y-92528D01*
X98025Y-92499D01*
X98057Y-92470D01*
X98083Y-92448D01*
X98101Y-92433D01*
X98112Y-92422D01*
X98116Y-92419D01*
Y-90409D01*
X95924D01*
Y-91261D01*
X97089D01*
Y-91902D01*
X96998Y-91967D01*
X96904Y-92026D01*
X96812Y-92076D01*
X96725Y-92120D01*
X96685Y-92138D01*
X96649Y-92157D01*
X96616Y-92171D01*
X96591Y-92182D01*
X96569Y-92193D01*
X96551Y-92197D01*
X96539Y-92204D01*
X96536D01*
X96416Y-92244D01*
X96299Y-92277D01*
X96194Y-92299D01*
X96143Y-92306D01*
X96096Y-92313D01*
X96052Y-92317D01*
X96015Y-92320D01*
X95979Y-92324D01*
X95950D01*
X95928Y-92328D01*
X95895D01*
X95779Y-92324D01*
X95666Y-92309D01*
X95560Y-92288D01*
X95462Y-92259D01*
X95367Y-92222D01*
X95280Y-92186D01*
X95204Y-92146D01*
X95131Y-92102D01*
X95069Y-92062D01*
X95011Y-92022D01*
X94963Y-91982D01*
X94923Y-91949D01*
X94891Y-91920D01*
X94869Y-91898D01*
X94854Y-91884D01*
X94851Y-91880D01*
X94781Y-91793D01*
X94720Y-91694D01*
X94665Y-91589D01*
X94621Y-91479D01*
X94581Y-91370D01*
X94552Y-91258D01*
X94523Y-91148D01*
X94505Y-91039D01*
X94487Y-90937D01*
X94476Y-90842D01*
X94465Y-90759D01*
X94461Y-90682D01*
X94458Y-90650D01*
Y-90620D01*
X94454Y-90599D01*
Y-90577D01*
Y-90559D01*
Y-90548D01*
Y-90540D01*
Y-90537D01*
X94458Y-90387D01*
X94472Y-90246D01*
X94490Y-90114D01*
X94516Y-89991D01*
X94545Y-89878D01*
X94578Y-89776D01*
X94614Y-89681D01*
X94650Y-89598D01*
X94687Y-89525D01*
X94723Y-89463D01*
X94756Y-89408D01*
X94785Y-89365D01*
X94811Y-89328D01*
X94829Y-89303D01*
X94843Y-89288D01*
X94847Y-89285D01*
X94923Y-89208D01*
X95007Y-89143D01*
X95091Y-89088D01*
X95178Y-89037D01*
X95266Y-88997D01*
X95357Y-88964D01*
X95440Y-88935D01*
X95524Y-88913D01*
X95604Y-88895D01*
X95673Y-88881D01*
X95739Y-88873D01*
X95797Y-88866D01*
X95841Y-88862D01*
X95877Y-88859D01*
X95906D01*
X95986Y-88862D01*
X96063Y-88870D01*
X96139Y-88881D01*
X96205Y-88892D01*
X96270Y-88910D01*
X96332Y-88928D01*
X96387Y-88946D01*
X96438Y-88968D01*
X96481Y-88990D01*
X96521Y-89008D01*
X96558Y-89026D01*
X96587Y-89044D01*
X96609Y-89055D01*
X96623Y-89066D01*
X96634Y-89073D01*
X96638Y-89077D01*
X96692Y-89117D01*
X96740Y-89165D01*
X96783Y-89212D01*
X96827Y-89259D01*
X96864Y-89306D01*
X96896Y-89357D01*
X96925Y-89405D01*
X96951Y-89448D01*
X96973Y-89492D01*
X96991Y-89532D01*
X97009Y-89569D01*
X97020Y-89598D01*
X97031Y-89623D01*
X97038Y-89645D01*
X97042Y-89656D01*
Y-89660D01*
X98050Y-89470D01*
X98017Y-89343D01*
X97977Y-89226D01*
X97930Y-89113D01*
X97879Y-89008D01*
X97825Y-88913D01*
X97766Y-88822D01*
X97712Y-88742D01*
X97653Y-88669D01*
X97599Y-88604D01*
X97544Y-88546D01*
X97497Y-88498D01*
X97453Y-88458D01*
X97420Y-88426D01*
X97391Y-88404D01*
X97377Y-88389D01*
X97369Y-88385D01*
X97268Y-88316D01*
X97155Y-88254D01*
X97038Y-88200D01*
X96918Y-88156D01*
X96798Y-88116D01*
X96674Y-88087D01*
X96554Y-88058D01*
X96441Y-88040D01*
X96332Y-88021D01*
X96230Y-88011D01*
X96139Y-88000D01*
X96059Y-87996D01*
X96026Y-87992D01*
X95997D01*
X95968Y-87989D01*
X110030D01*
Y-93198D01*
D02*
G37*
%LPC*%
G36*
X66480Y-196562D02*
X65685Y-196891D01*
X64942Y-197462D01*
X64372Y-198205D01*
X64042Y-199000D01*
X66480D01*
Y-196562D01*
D02*
G37*
G36*
X53418Y-196000D02*
X50980D01*
Y-198438D01*
X51775Y-198109D01*
X52519Y-197538D01*
X53089Y-196795D01*
X53418Y-196000D01*
D02*
G37*
G36*
X48980Y-76000D02*
X46542D01*
X46872Y-76795D01*
X47442Y-77538D01*
X48185Y-78109D01*
X48980Y-78438D01*
Y-76000D01*
D02*
G37*
G36*
X66480Y-201000D02*
X64042D01*
X64372Y-201795D01*
X64942Y-202538D01*
X65685Y-203109D01*
X66480Y-203438D01*
Y-201000D01*
D02*
G37*
G36*
X48980Y-196000D02*
X46542D01*
X46872Y-196795D01*
X47442Y-197538D01*
X48185Y-198109D01*
X48980Y-198438D01*
Y-196000D01*
D02*
G37*
G36*
X66480Y-191000D02*
X64042D01*
X64372Y-191795D01*
X64942Y-192538D01*
X65685Y-193109D01*
X66480Y-193438D01*
Y-191000D01*
D02*
G37*
G36*
Y-186562D02*
X65685Y-186891D01*
X64942Y-187462D01*
X64372Y-188205D01*
X64042Y-189000D01*
X66480D01*
Y-186562D01*
D02*
G37*
G36*
X48980Y-191562D02*
X48185Y-191891D01*
X47442Y-192462D01*
X46872Y-193205D01*
X46542Y-194000D01*
X48980D01*
Y-191562D01*
D02*
G37*
G36*
X50980Y-191562D02*
Y-194000D01*
X53418D01*
X53089Y-193205D01*
X52519Y-192462D01*
X51775Y-191891D01*
X50980Y-191562D01*
D02*
G37*
G36*
X103059Y-88073D02*
X102116D01*
Y-91447D01*
X100048Y-88073D01*
X99062D01*
Y-93110D01*
X100005D01*
Y-89812D01*
X102040Y-93110D01*
X103059D01*
Y-88073D01*
D02*
G37*
G36*
X106340Y-52105D02*
X94390D01*
Y-58169D01*
X106340D01*
Y-52105D01*
D02*
G37*
G36*
X104433Y-18943D02*
X95866D01*
X95281Y-19060D01*
X94785Y-19391D01*
X94453Y-19887D01*
X94337Y-20472D01*
Y-49453D01*
X94453Y-50038D01*
X94785Y-50534D01*
X95281Y-50866D01*
X95866Y-50982D01*
X104433D01*
X105018Y-50866D01*
X105515Y-50534D01*
X105846Y-50038D01*
X105962Y-49453D01*
Y-20472D01*
X105846Y-19887D01*
X105515Y-19391D01*
X105018Y-19060D01*
X104433Y-18943D01*
D02*
G37*
G36*
X106091Y-88073D02*
X104133D01*
Y-93110D01*
X106146D01*
X106244Y-93107D01*
X106335Y-93099D01*
X106422Y-93092D01*
X106502Y-93085D01*
X106579Y-93077D01*
X106644Y-93067D01*
X106706Y-93056D01*
X106761Y-93048D01*
X106808Y-93037D01*
X106852Y-93030D01*
X106884Y-93019D01*
X106910Y-93016D01*
X106932Y-93008D01*
X106943Y-93005D01*
X106946D01*
X107030Y-92976D01*
X107106Y-92946D01*
X107179Y-92914D01*
X107248Y-92881D01*
X107310Y-92848D01*
X107369Y-92815D01*
X107423Y-92783D01*
X107471Y-92750D01*
X107514Y-92721D01*
X107551Y-92692D01*
X107583Y-92670D01*
X107612Y-92648D01*
X107631Y-92630D01*
X107649Y-92615D01*
X107656Y-92608D01*
X107660Y-92604D01*
X107725Y-92539D01*
X107783Y-92466D01*
X107838Y-92393D01*
X107893Y-92320D01*
X107940Y-92244D01*
X107984Y-92171D01*
X108024Y-92098D01*
X108060Y-92029D01*
X108093Y-91964D01*
X108122Y-91905D01*
X108144Y-91851D01*
X108162Y-91803D01*
X108180Y-91767D01*
X108191Y-91738D01*
X108195Y-91720D01*
X108198Y-91712D01*
X108228Y-91625D01*
X108249Y-91538D01*
X108290Y-91356D01*
X108319Y-91177D01*
X108326Y-91090D01*
X108337Y-91010D01*
X108340Y-90934D01*
X108348Y-90864D01*
X108351Y-90799D01*
Y-90748D01*
X108355Y-90704D01*
Y-90671D01*
Y-90650D01*
Y-90642D01*
Y-90511D01*
X108348Y-90387D01*
X108340Y-90267D01*
X108329Y-90158D01*
X108315Y-90053D01*
X108300Y-89954D01*
X108286Y-89863D01*
X108271Y-89780D01*
X108257Y-89707D01*
X108242Y-89641D01*
X108228Y-89587D01*
X108213Y-89539D01*
X108202Y-89499D01*
X108195Y-89474D01*
X108191Y-89456D01*
X108188Y-89452D01*
X108155Y-89365D01*
X108118Y-89277D01*
X108082Y-89197D01*
X108042Y-89121D01*
X108002Y-89048D01*
X107962Y-88982D01*
X107925Y-88921D01*
X107885Y-88862D01*
X107849Y-88811D01*
X107816Y-88768D01*
X107787Y-88728D01*
X107758Y-88695D01*
X107736Y-88669D01*
X107722Y-88651D01*
X107711Y-88640D01*
X107707Y-88637D01*
X107645Y-88575D01*
X107583Y-88520D01*
X107518Y-88469D01*
X107456Y-88422D01*
X107390Y-88382D01*
X107328Y-88342D01*
X107267Y-88309D01*
X107208Y-88276D01*
X107154Y-88251D01*
X107103Y-88229D01*
X107059Y-88211D01*
X107019Y-88196D01*
X106990Y-88185D01*
X106965Y-88178D01*
X106950Y-88171D01*
X106946D01*
X106881Y-88153D01*
X106812Y-88138D01*
X106735Y-88123D01*
X106659Y-88112D01*
X106499Y-88098D01*
X106422Y-88091D01*
X106346Y-88083D01*
X106273Y-88080D01*
X106207Y-88076D01*
X106146D01*
X106091Y-88073D01*
D02*
G37*
G36*
X50980Y-71562D02*
Y-74000D01*
X53418D01*
X53089Y-73205D01*
X52519Y-72462D01*
X51775Y-71891D01*
X50980Y-71562D01*
D02*
G37*
G36*
X106382Y-245042D02*
X98130D01*
Y-250098D01*
X106382D01*
Y-245042D01*
D02*
G37*
G36*
X29980Y-240906D02*
X28921Y-241045D01*
X27933Y-241454D01*
X27085Y-242105D01*
X26435Y-242953D01*
X26026Y-243940D01*
X25886Y-245000D01*
X26026Y-246060D01*
X26435Y-247047D01*
X27085Y-247895D01*
X27933Y-248546D01*
X28921Y-248955D01*
X29980Y-249094D01*
X31040Y-248955D01*
X32027Y-248546D01*
X32875Y-247895D01*
X33526Y-247047D01*
X33935Y-246060D01*
X34074Y-245000D01*
X33935Y-243940D01*
X33526Y-242953D01*
X32875Y-242105D01*
X32027Y-241454D01*
X31040Y-241045D01*
X29980Y-240906D01*
D02*
G37*
G36*
X48980Y-71562D02*
X48185Y-71891D01*
X47442Y-72462D01*
X46872Y-73205D01*
X46542Y-74000D01*
X48980D01*
Y-71562D01*
D02*
G37*
G36*
X83418Y-256000D02*
X80980D01*
Y-258438D01*
X81775Y-258109D01*
X82519Y-257538D01*
X83089Y-256795D01*
X83418Y-256000D01*
D02*
G37*
G36*
X53418Y-76000D02*
X50980D01*
Y-78438D01*
X51775Y-78109D01*
X52519Y-77538D01*
X53089Y-76795D01*
X53418Y-76000D01*
D02*
G37*
G36*
X98980Y-111000D02*
X96125D01*
X96129Y-111032D01*
X96528Y-111993D01*
X97161Y-112819D01*
X97987Y-113453D01*
X98948Y-113851D01*
X98980Y-113855D01*
Y-111000D01*
D02*
G37*
G36*
Y-106145D02*
X98948Y-106149D01*
X97987Y-106547D01*
X97161Y-107181D01*
X96528Y-108007D01*
X96129Y-108968D01*
X96125Y-109000D01*
X98980D01*
Y-106145D01*
D02*
G37*
G36*
X103933Y-116047D02*
X100980D01*
Y-119000D01*
X103933D01*
Y-116047D01*
D02*
G37*
G36*
X103835Y-111000D02*
X100980D01*
Y-113855D01*
X101012Y-113851D01*
X101974Y-113453D01*
X102799Y-112819D01*
X103433Y-111993D01*
X103831Y-111032D01*
X103835Y-111000D01*
D02*
G37*
G36*
X100980Y-106145D02*
Y-109000D01*
X103835D01*
X103831Y-108968D01*
X103433Y-108007D01*
X102799Y-107181D01*
X101974Y-106547D01*
X101012Y-106149D01*
X100980Y-106145D01*
D02*
G37*
G36*
X98980Y-96145D02*
X98948Y-96149D01*
X97987Y-96547D01*
X97161Y-97181D01*
X96528Y-98007D01*
X96129Y-98968D01*
X96125Y-99000D01*
X98980D01*
Y-96145D01*
D02*
G37*
G36*
X100980D02*
Y-99000D01*
X103835D01*
X103831Y-98968D01*
X103433Y-98007D01*
X102799Y-97181D01*
X101974Y-96547D01*
X101012Y-96149D01*
X100980Y-96145D01*
D02*
G37*
G36*
X103835Y-101000D02*
X100980D01*
Y-103855D01*
X101012Y-103851D01*
X101974Y-103453D01*
X102799Y-102819D01*
X103433Y-101993D01*
X103831Y-101032D01*
X103835Y-101000D01*
D02*
G37*
G36*
X98980D02*
X96125D01*
X96129Y-101032D01*
X96528Y-101993D01*
X97161Y-102819D01*
X97987Y-103453D01*
X98948Y-103851D01*
X98980Y-103855D01*
Y-101000D01*
D02*
G37*
G36*
X103933Y-121000D02*
X100980D01*
Y-123953D01*
X103933D01*
Y-121000D01*
D02*
G37*
G36*
X48418D02*
X45980D01*
Y-123438D01*
X46775Y-123109D01*
X47519Y-122538D01*
X48089Y-121795D01*
X48418Y-121000D01*
D02*
G37*
G36*
X98980D02*
X96028D01*
Y-123953D01*
X98980D01*
Y-121000D01*
D02*
G37*
G36*
X39980Y-70906D02*
X38921Y-71045D01*
X37933Y-71454D01*
X37085Y-72105D01*
X36435Y-72953D01*
X36026Y-73940D01*
X35886Y-75000D01*
X36026Y-76060D01*
X36435Y-77047D01*
X37085Y-77895D01*
X37933Y-78546D01*
X38921Y-78955D01*
X39980Y-79094D01*
X41040Y-78955D01*
X42027Y-78546D01*
X42875Y-77895D01*
X43526Y-77047D01*
X43935Y-76060D01*
X44074Y-75000D01*
X43935Y-73940D01*
X43526Y-72953D01*
X42875Y-72105D01*
X42027Y-71454D01*
X41040Y-71045D01*
X39980Y-70906D01*
D02*
G37*
G36*
X34980Y-115906D02*
X33921Y-116045D01*
X32933Y-116454D01*
X32085Y-117105D01*
X31435Y-117953D01*
X31026Y-118940D01*
X30886Y-120000D01*
X31026Y-121060D01*
X31435Y-122047D01*
X32085Y-122895D01*
X32933Y-123546D01*
X33921Y-123955D01*
X34980Y-124094D01*
X36040Y-123955D01*
X37027Y-123546D01*
X37875Y-122895D01*
X38526Y-122047D01*
X38935Y-121060D01*
X39074Y-120000D01*
X38935Y-118940D01*
X38526Y-117953D01*
X37875Y-117105D01*
X37027Y-116454D01*
X36040Y-116045D01*
X34980Y-115906D01*
D02*
G37*
G36*
X43980Y-121000D02*
X41542D01*
X41872Y-121795D01*
X42442Y-122538D01*
X43185Y-123109D01*
X43980Y-123438D01*
Y-121000D01*
D02*
G37*
G36*
X98980Y-116047D02*
X96028D01*
Y-119000D01*
X98980D01*
Y-116047D01*
D02*
G37*
G36*
X43980Y-116562D02*
X43185Y-116891D01*
X42442Y-117462D01*
X41872Y-118205D01*
X41542Y-119000D01*
X43980D01*
Y-116562D01*
D02*
G37*
G36*
X45980Y-116562D02*
Y-119000D01*
X48418D01*
X48089Y-118205D01*
X47519Y-117462D01*
X46775Y-116891D01*
X45980Y-116562D01*
D02*
G37*
%LPD*%
G36*
X106340Y-58169D02*
X104647D01*
X104778Y-58166D01*
X104906Y-58148D01*
X105026Y-58126D01*
X105139Y-58096D01*
X105248Y-58060D01*
X105346Y-58020D01*
X105437Y-57980D01*
X105521Y-57936D01*
X105594Y-57893D01*
X105663Y-57849D01*
X105717Y-57813D01*
X105765Y-57776D01*
X105801Y-57747D01*
X105830Y-57722D01*
X105845Y-57707D01*
X105852Y-57703D01*
X105939Y-57612D01*
X106012Y-57521D01*
X106078Y-57427D01*
X106136Y-57328D01*
X106180Y-57234D01*
X106220Y-57139D01*
X106253Y-57048D01*
X106278Y-56961D01*
X106300Y-56881D01*
X106314Y-56808D01*
X106325Y-56739D01*
X106333Y-56684D01*
X106336Y-56637D01*
X106340Y-56600D01*
Y-58169D01*
D02*
G37*
G36*
Y-56571D02*
X106336Y-56488D01*
X106329Y-56407D01*
X106314Y-56331D01*
X106300Y-56258D01*
X106282Y-56189D01*
X106260Y-56124D01*
X106234Y-56065D01*
X106212Y-56011D01*
X106187Y-55963D01*
X106161Y-55920D01*
X106140Y-55880D01*
X106122Y-55851D01*
X106107Y-55825D01*
X106092Y-55807D01*
X106085Y-55796D01*
X106081Y-55792D01*
X106030Y-55734D01*
X105976Y-55683D01*
X105921Y-55632D01*
X105863Y-55592D01*
X105808Y-55552D01*
X105750Y-55519D01*
X105692Y-55490D01*
X105637Y-55465D01*
X105586Y-55443D01*
X105539Y-55425D01*
X105499Y-55406D01*
X105463Y-55396D01*
X105430Y-55388D01*
X105408Y-55381D01*
X105394Y-55377D01*
X105390D01*
X105455Y-55341D01*
X105517Y-55301D01*
X105576Y-55261D01*
X105630Y-55217D01*
X105681Y-55177D01*
X105728Y-55133D01*
X105812Y-55046D01*
X105881Y-54955D01*
X105939Y-54868D01*
X105987Y-54781D01*
X106027Y-54700D01*
X106056Y-54620D01*
X106078Y-54548D01*
X106096Y-54486D01*
X106107Y-54427D01*
X106114Y-54380D01*
X106118Y-54347D01*
Y-54325D01*
Y-54318D01*
X106114Y-54231D01*
X106103Y-54147D01*
X106085Y-54067D01*
X106063Y-53991D01*
X106034Y-53918D01*
X106005Y-53849D01*
X105972Y-53783D01*
X105939Y-53725D01*
X105907Y-53670D01*
X105874Y-53623D01*
X105845Y-53583D01*
X105816Y-53547D01*
X105794Y-53517D01*
X105776Y-53499D01*
X105765Y-53485D01*
X105761Y-53481D01*
X105677Y-53401D01*
X105590Y-53332D01*
X105495Y-53270D01*
X105401Y-53219D01*
X105306Y-53175D01*
X105211Y-53135D01*
X105121Y-53106D01*
X105029Y-53084D01*
X104946Y-53062D01*
X104869Y-53052D01*
X104800Y-53040D01*
X104738Y-53033D01*
X104691Y-53030D01*
X104655Y-53026D01*
X104545D01*
X104469Y-53033D01*
X104327Y-53052D01*
X104261Y-53062D01*
X104200Y-53077D01*
X104141Y-53088D01*
X104087Y-53102D01*
X104039Y-53117D01*
X103996Y-53132D01*
X103959Y-53146D01*
X103927Y-53157D01*
X103901Y-53168D01*
X103883Y-53175D01*
X103872Y-53179D01*
X103868Y-53183D01*
X103748Y-53244D01*
X103697Y-53281D01*
X103646Y-53317D01*
X103599Y-53350D01*
X103555Y-53386D01*
X103515Y-53423D01*
X103482Y-53456D01*
X103450Y-53488D01*
X103421Y-53517D01*
X103399Y-53543D01*
X103381Y-53568D01*
X103362Y-53587D01*
X103351Y-53601D01*
X103348Y-53608D01*
X103344Y-53612D01*
X103311Y-53667D01*
X103279Y-53721D01*
X103224Y-53841D01*
X103177Y-53965D01*
X103137Y-54082D01*
X103119Y-54132D01*
X103108Y-54184D01*
X103093Y-54227D01*
X103086Y-54267D01*
X103078Y-54300D01*
X103071Y-54322D01*
X103068Y-54340D01*
Y-54344D01*
X103956Y-54493D01*
X103963Y-54435D01*
X103974Y-54376D01*
X103988Y-54325D01*
X104003Y-54278D01*
X104021Y-54231D01*
X104039Y-54191D01*
X104058Y-54154D01*
X104076Y-54122D01*
X104094Y-54093D01*
X104109Y-54067D01*
X104127Y-54045D01*
X104138Y-54027D01*
X104152Y-54012D01*
X104159Y-54001D01*
X104163Y-53998D01*
X104167Y-53994D01*
X104200Y-53965D01*
X104236Y-53936D01*
X104309Y-53892D01*
X104382Y-53863D01*
X104447Y-53841D01*
X104505Y-53827D01*
X104531Y-53823D01*
X104553D01*
X104567Y-53820D01*
X104593D01*
X104684Y-53827D01*
X104760Y-53845D01*
X104829Y-53867D01*
X104887Y-53896D01*
X104935Y-53925D01*
X104968Y-53947D01*
X104989Y-53965D01*
X104997Y-53972D01*
X105048Y-54034D01*
X105084Y-54100D01*
X105113Y-54165D01*
X105131Y-54231D01*
X105142Y-54289D01*
X105146Y-54311D01*
Y-54333D01*
X105150Y-54351D01*
Y-54365D01*
Y-54373D01*
Y-54376D01*
X105146Y-54431D01*
X105142Y-54482D01*
X105131Y-54533D01*
X105117Y-54577D01*
X105084Y-54660D01*
X105048Y-54729D01*
X105026Y-54759D01*
X105008Y-54784D01*
X104989Y-54806D01*
X104975Y-54824D01*
X104960Y-54839D01*
X104949Y-54850D01*
X104946Y-54853D01*
X104942Y-54857D01*
X104902Y-54890D01*
X104858Y-54915D01*
X104811Y-54937D01*
X104760Y-54959D01*
X104662Y-54988D01*
X104564Y-55006D01*
X104520Y-55013D01*
X104476Y-55017D01*
X104440Y-55021D01*
X104407Y-55024D01*
X104341D01*
X104236Y-55811D01*
X104327Y-55785D01*
X104411Y-55767D01*
X104487Y-55756D01*
X104553Y-55745D01*
X104604Y-55741D01*
X104625D01*
X104644Y-55738D01*
X104676D01*
X104727Y-55741D01*
X104778Y-55749D01*
X104826Y-55756D01*
X104869Y-55770D01*
X104949Y-55807D01*
X105019Y-55843D01*
X105077Y-55883D01*
X105099Y-55902D01*
X105117Y-55920D01*
X105135Y-55934D01*
X105146Y-55942D01*
X105150Y-55949D01*
X105153Y-55953D01*
X105190Y-55993D01*
X105219Y-56040D01*
X105244Y-56087D01*
X105266Y-56134D01*
X105303Y-56229D01*
X105324Y-56324D01*
X105335Y-56364D01*
X105339Y-56404D01*
X105342Y-56440D01*
X105346Y-56469D01*
X105350Y-56495D01*
Y-56517D01*
Y-56528D01*
Y-56531D01*
X105346Y-56600D01*
X105342Y-56670D01*
X105332Y-56731D01*
X105317Y-56790D01*
X105303Y-56844D01*
X105284Y-56895D01*
X105266Y-56939D01*
X105248Y-56983D01*
X105226Y-57019D01*
X105208Y-57052D01*
X105190Y-57077D01*
X105175Y-57103D01*
X105160Y-57121D01*
X105150Y-57132D01*
X105146Y-57139D01*
X105142Y-57143D01*
X105102Y-57183D01*
X105062Y-57216D01*
X105022Y-57248D01*
X104979Y-57274D01*
X104935Y-57296D01*
X104895Y-57314D01*
X104815Y-57339D01*
X104746Y-57358D01*
X104716Y-57361D01*
X104691Y-57365D01*
X104669Y-57368D01*
X104640D01*
X104589Y-57365D01*
X104542Y-57361D01*
X104451Y-57339D01*
X104371Y-57310D01*
X104302Y-57274D01*
X104243Y-57241D01*
X104221Y-57227D01*
X104203Y-57212D01*
X104189Y-57201D01*
X104178Y-57190D01*
X104170Y-57187D01*
X104167Y-57183D01*
X104134Y-57147D01*
X104101Y-57106D01*
X104050Y-57015D01*
X104007Y-56924D01*
X103978Y-56837D01*
X103963Y-56797D01*
X103956Y-56757D01*
X103945Y-56724D01*
X103941Y-56691D01*
X103934Y-56666D01*
Y-56648D01*
X103930Y-56637D01*
Y-56633D01*
X102995Y-56750D01*
X103013Y-56866D01*
X103038Y-56975D01*
X103068Y-57081D01*
X103104Y-57176D01*
X103148Y-57267D01*
X103191Y-57354D01*
X103235Y-57430D01*
X103282Y-57499D01*
X103326Y-57561D01*
X103370Y-57620D01*
X103410Y-57667D01*
X103442Y-57703D01*
X103472Y-57736D01*
X103497Y-57758D01*
X103512Y-57772D01*
X103515Y-57776D01*
X103603Y-57845D01*
X103694Y-57907D01*
X103788Y-57958D01*
X103883Y-58002D01*
X103978Y-58042D01*
X104072Y-58075D01*
X104163Y-58100D01*
X104251Y-58118D01*
X104334Y-58136D01*
X104407Y-58148D01*
X104476Y-58158D01*
X104534Y-58162D01*
X104582Y-58166D01*
X104618Y-58169D01*
X96042D01*
X96173Y-58166D01*
X96301Y-58148D01*
X96421Y-58126D01*
X96534Y-58096D01*
X96643Y-58060D01*
X96741Y-58020D01*
X96832Y-57980D01*
X96916Y-57936D01*
X96989Y-57893D01*
X97058Y-57849D01*
X97113Y-57813D01*
X97160Y-57776D01*
X97196Y-57747D01*
X97225Y-57722D01*
X97240Y-57707D01*
X97247Y-57703D01*
X97334Y-57612D01*
X97407Y-57521D01*
X97473Y-57427D01*
X97531Y-57328D01*
X97575Y-57234D01*
X97615Y-57139D01*
X97648Y-57048D01*
X97673Y-56961D01*
X97695Y-56881D01*
X97709Y-56808D01*
X97720Y-56739D01*
X97728Y-56684D01*
X97731Y-56637D01*
X97735Y-56600D01*
Y-56579D01*
Y-56571D01*
X97731Y-56488D01*
X97724Y-56407D01*
X97709Y-56331D01*
X97695Y-56258D01*
X97677Y-56189D01*
X97655Y-56124D01*
X97629Y-56065D01*
X97607Y-56011D01*
X97582Y-55963D01*
X97557Y-55920D01*
X97535Y-55880D01*
X97517Y-55851D01*
X97502Y-55825D01*
X97487Y-55807D01*
X97480Y-55796D01*
X97477Y-55792D01*
X97426Y-55734D01*
X97371Y-55683D01*
X97316Y-55632D01*
X97258Y-55592D01*
X97203Y-55552D01*
X97145Y-55519D01*
X97087Y-55490D01*
X97032Y-55465D01*
X96981Y-55443D01*
X96934Y-55425D01*
X96894Y-55406D01*
X96858Y-55396D01*
X96825Y-55388D01*
X96803Y-55381D01*
X96789Y-55377D01*
X96785D01*
X96850Y-55341D01*
X96912Y-55301D01*
X96970Y-55261D01*
X97025Y-55217D01*
X97076Y-55177D01*
X97123Y-55133D01*
X97207Y-55046D01*
X97276Y-54955D01*
X97334Y-54868D01*
X97382Y-54781D01*
X97422Y-54700D01*
X97451Y-54620D01*
X97473Y-54548D01*
X97491Y-54486D01*
X97502Y-54427D01*
X97509Y-54380D01*
X97513Y-54347D01*
Y-54325D01*
Y-54318D01*
X97509Y-54231D01*
X97498Y-54147D01*
X97480Y-54067D01*
X97458Y-53991D01*
X97429Y-53918D01*
X97400Y-53849D01*
X97367Y-53783D01*
X97334Y-53725D01*
X97302Y-53670D01*
X97269Y-53623D01*
X97240Y-53583D01*
X97211Y-53547D01*
X97189Y-53517D01*
X97171Y-53499D01*
X97160Y-53485D01*
X97156Y-53481D01*
X97072Y-53401D01*
X96985Y-53332D01*
X96890Y-53270D01*
X96796Y-53219D01*
X96701Y-53175D01*
X96606Y-53135D01*
X96516Y-53106D01*
X96425Y-53084D01*
X96341Y-53062D01*
X96264Y-53052D01*
X96195Y-53040D01*
X96133Y-53033D01*
X96086Y-53030D01*
X96050Y-53026D01*
X95940D01*
X95864Y-53033D01*
X95722Y-53052D01*
X95657Y-53062D01*
X95595Y-53077D01*
X95536Y-53088D01*
X95482Y-53102D01*
X95434Y-53117D01*
X95391Y-53132D01*
X95354Y-53146D01*
X95322Y-53157D01*
X95296Y-53168D01*
X95278Y-53175D01*
X95267Y-53179D01*
X95263Y-53183D01*
X95143Y-53244D01*
X95092Y-53281D01*
X95041Y-53317D01*
X94994Y-53350D01*
X94950Y-53386D01*
X94910Y-53423D01*
X94877Y-53456D01*
X94845Y-53488D01*
X94816Y-53517D01*
X94794Y-53543D01*
X94776Y-53568D01*
X94757Y-53587D01*
X94747Y-53601D01*
X94743Y-53608D01*
X94739Y-53612D01*
X94706Y-53667D01*
X94674Y-53721D01*
X94619Y-53841D01*
X94572Y-53965D01*
X94532Y-54082D01*
X94513Y-54132D01*
X94503Y-54184D01*
X94488Y-54227D01*
X94481Y-54267D01*
X94473Y-54300D01*
X94466Y-54322D01*
X94463Y-54340D01*
Y-54344D01*
X95351Y-54493D01*
X95358Y-54435D01*
X95369Y-54376D01*
X95384Y-54325D01*
X95398Y-54278D01*
X95416Y-54231D01*
X95434Y-54191D01*
X95453Y-54154D01*
X95471Y-54122D01*
X95489Y-54093D01*
X95504Y-54067D01*
X95522Y-54045D01*
X95533Y-54027D01*
X95547Y-54012D01*
X95555Y-54001D01*
X95558Y-53998D01*
X95562Y-53994D01*
X95595Y-53965D01*
X95631Y-53936D01*
X95704Y-53892D01*
X95777Y-53863D01*
X95842Y-53841D01*
X95900Y-53827D01*
X95926Y-53823D01*
X95948D01*
X95962Y-53820D01*
X95988D01*
X96079Y-53827D01*
X96155Y-53845D01*
X96224Y-53867D01*
X96283Y-53896D01*
X96330Y-53925D01*
X96363Y-53947D01*
X96385Y-53965D01*
X96392Y-53972D01*
X96443Y-54034D01*
X96479Y-54100D01*
X96508Y-54165D01*
X96526Y-54231D01*
X96537Y-54289D01*
X96541Y-54311D01*
Y-54333D01*
X96545Y-54351D01*
Y-54365D01*
Y-54373D01*
Y-54376D01*
X96541Y-54431D01*
X96537Y-54482D01*
X96526Y-54533D01*
X96512Y-54577D01*
X96479Y-54660D01*
X96443Y-54729D01*
X96421Y-54759D01*
X96403Y-54784D01*
X96385Y-54806D01*
X96370Y-54824D01*
X96355Y-54839D01*
X96344Y-54850D01*
X96341Y-54853D01*
X96337Y-54857D01*
X96297Y-54890D01*
X96253Y-54915D01*
X96206Y-54937D01*
X96155Y-54959D01*
X96057Y-54988D01*
X95959Y-55006D01*
X95915Y-55013D01*
X95871Y-55017D01*
X95835Y-55021D01*
X95802Y-55024D01*
X95737D01*
X95631Y-55811D01*
X95722Y-55785D01*
X95806Y-55767D01*
X95882Y-55756D01*
X95948Y-55745D01*
X95999Y-55741D01*
X96021D01*
X96039Y-55738D01*
X96071D01*
X96122Y-55741D01*
X96173Y-55749D01*
X96221Y-55756D01*
X96264Y-55770D01*
X96344Y-55807D01*
X96414Y-55843D01*
X96472Y-55883D01*
X96494Y-55902D01*
X96512Y-55920D01*
X96530Y-55934D01*
X96541Y-55942D01*
X96545Y-55949D01*
X96548Y-55953D01*
X96585Y-55993D01*
X96614Y-56040D01*
X96639Y-56087D01*
X96661Y-56134D01*
X96697Y-56229D01*
X96719Y-56324D01*
X96730Y-56364D01*
X96734Y-56404D01*
X96738Y-56440D01*
X96741Y-56469D01*
X96745Y-56495D01*
Y-56517D01*
Y-56528D01*
Y-56531D01*
X96741Y-56600D01*
X96738Y-56670D01*
X96727Y-56731D01*
X96712Y-56790D01*
X96697Y-56844D01*
X96679Y-56895D01*
X96661Y-56939D01*
X96643Y-56983D01*
X96621Y-57019D01*
X96603Y-57052D01*
X96585Y-57077D01*
X96570Y-57103D01*
X96556Y-57121D01*
X96545Y-57132D01*
X96541Y-57139D01*
X96537Y-57143D01*
X96497Y-57183D01*
X96457Y-57216D01*
X96417Y-57248D01*
X96374Y-57274D01*
X96330Y-57296D01*
X96290Y-57314D01*
X96210Y-57339D01*
X96141Y-57358D01*
X96112Y-57361D01*
X96086Y-57365D01*
X96064Y-57368D01*
X96035D01*
X95984Y-57365D01*
X95937Y-57361D01*
X95846Y-57339D01*
X95766Y-57310D01*
X95697Y-57274D01*
X95638Y-57241D01*
X95616Y-57227D01*
X95598Y-57212D01*
X95584Y-57201D01*
X95573Y-57190D01*
X95565Y-57187D01*
X95562Y-57183D01*
X95529Y-57147D01*
X95496Y-57106D01*
X95445Y-57015D01*
X95402Y-56924D01*
X95373Y-56837D01*
X95358Y-56797D01*
X95351Y-56757D01*
X95340Y-56724D01*
X95336Y-56691D01*
X95329Y-56666D01*
Y-56648D01*
X95325Y-56637D01*
Y-56633D01*
X94390Y-56750D01*
X94408Y-56866D01*
X94433Y-56975D01*
X94463Y-57081D01*
X94499Y-57176D01*
X94543Y-57267D01*
X94586Y-57354D01*
X94630Y-57430D01*
X94677Y-57499D01*
X94721Y-57561D01*
X94765Y-57620D01*
X94805Y-57667D01*
X94837Y-57703D01*
X94867Y-57736D01*
X94892Y-57758D01*
X94907Y-57772D01*
X94910Y-57776D01*
X94998Y-57845D01*
X95089Y-57907D01*
X95183Y-57958D01*
X95278Y-58002D01*
X95373Y-58042D01*
X95467Y-58075D01*
X95558Y-58100D01*
X95646Y-58118D01*
X95729Y-58136D01*
X95802Y-58148D01*
X95871Y-58158D01*
X95929Y-58162D01*
X95977Y-58166D01*
X96013Y-58169D01*
X94390D01*
Y-52105D01*
X106340D01*
Y-56571D01*
D02*
G37*
G36*
X104656Y-245046D02*
X104536Y-245057D01*
X104423Y-245075D01*
X104314Y-245097D01*
X104216Y-245123D01*
X104121Y-245152D01*
X104034Y-245184D01*
X103958Y-245217D01*
X103888Y-245250D01*
X103823Y-245283D01*
X103772Y-245312D01*
X103725Y-245337D01*
X103692Y-245359D01*
X103666Y-245377D01*
X103648Y-245388D01*
X103645Y-245392D01*
X103564Y-245461D01*
X103492Y-245541D01*
X103426Y-245625D01*
X103372Y-245716D01*
X103321Y-245811D01*
X103277Y-245905D01*
X103241Y-246000D01*
X103208Y-246094D01*
X103182Y-246182D01*
X103160Y-246266D01*
X103142Y-246338D01*
X103131Y-246404D01*
X103120Y-246458D01*
X103117Y-246480D01*
X103113Y-246498D01*
Y-246513D01*
X103109Y-246524D01*
Y-246531D01*
Y-246535D01*
X104070Y-246630D01*
X104078Y-246553D01*
X104085Y-246484D01*
X104100Y-246418D01*
X104114Y-246357D01*
X104129Y-246302D01*
X104147Y-246251D01*
X104165Y-246207D01*
X104183Y-246167D01*
X104201Y-246134D01*
X104216Y-246105D01*
X104231Y-246080D01*
X104245Y-246062D01*
X104256Y-246043D01*
X104267Y-246033D01*
X104271Y-246029D01*
X104274Y-246025D01*
X104311Y-245992D01*
X104347Y-245963D01*
X104387Y-245942D01*
X104423Y-245920D01*
X104507Y-245887D01*
X104584Y-245865D01*
X104653Y-245854D01*
X104682Y-245847D01*
X104707D01*
X104729Y-245843D01*
X104758D01*
X104813Y-245847D01*
X104868Y-245851D01*
X104962Y-245869D01*
X105046Y-245898D01*
X105115Y-245931D01*
X105141Y-245945D01*
X105166Y-245963D01*
X105188Y-245978D01*
X105206Y-245989D01*
X105221Y-246003D01*
X105232Y-246011D01*
X105235Y-246014D01*
X105239Y-246018D01*
X105268Y-246051D01*
X105297Y-246091D01*
X105341Y-246167D01*
X105370Y-246251D01*
X105392Y-246331D01*
X105406Y-246404D01*
X105410Y-246433D01*
Y-246458D01*
X105414Y-246484D01*
Y-246498D01*
Y-246509D01*
Y-246513D01*
X105410Y-246568D01*
X105406Y-246622D01*
X105381Y-246731D01*
X105352Y-246830D01*
X105315Y-246921D01*
X105293Y-246961D01*
X105275Y-246997D01*
X105261Y-247026D01*
X105246Y-247055D01*
X105232Y-247077D01*
X105221Y-247092D01*
X105217Y-247103D01*
X105213Y-247106D01*
X105181Y-247150D01*
X105137Y-247205D01*
X105086Y-247263D01*
X105024Y-247325D01*
X104962Y-247394D01*
X104893Y-247459D01*
X104758Y-247598D01*
X104689Y-247663D01*
X104627Y-247725D01*
X104569Y-247780D01*
X104518Y-247831D01*
X104474Y-247871D01*
X104442Y-247903D01*
X104420Y-247922D01*
X104416Y-247925D01*
X104413Y-247929D01*
X104267Y-248067D01*
X104132Y-248198D01*
X104012Y-248319D01*
X103899Y-248435D01*
X103801Y-248544D01*
X103710Y-248642D01*
X103634Y-248733D01*
X103564Y-248817D01*
X103506Y-248890D01*
X103455Y-248955D01*
X103412Y-249010D01*
X103379Y-249054D01*
X103357Y-249090D01*
X103339Y-249116D01*
X103328Y-249134D01*
X103324Y-249137D01*
X103277Y-249225D01*
X103233Y-249309D01*
X103193Y-249396D01*
X103157Y-249480D01*
X103128Y-249563D01*
X103102Y-249640D01*
X103077Y-249716D01*
X103059Y-249789D01*
X103040Y-249855D01*
X103029Y-249913D01*
X103018Y-249967D01*
X103011Y-250011D01*
X103004Y-250047D01*
X103000Y-250077D01*
X102997Y-250091D01*
Y-250098D01*
X101024D01*
X102818Y-245061D01*
X101737D01*
X100507Y-248788D01*
X99229Y-245061D01*
X98130D01*
X99928Y-250098D01*
X98130D01*
Y-245042D01*
X104780D01*
X104656Y-245046D01*
D02*
G37*
G36*
X106382Y-249203D02*
X104460D01*
X104489Y-249156D01*
X104522Y-249108D01*
X104554Y-249061D01*
X104587Y-249021D01*
X104613Y-248988D01*
X104638Y-248959D01*
X104653Y-248944D01*
X104656Y-248937D01*
X104682Y-248908D01*
X104718Y-248872D01*
X104755Y-248835D01*
X104798Y-248792D01*
X104897Y-248701D01*
X104995Y-248606D01*
X105042Y-248562D01*
X105086Y-248519D01*
X105130Y-248482D01*
X105166Y-248449D01*
X105195Y-248420D01*
X105221Y-248398D01*
X105235Y-248384D01*
X105239Y-248380D01*
X105323Y-248304D01*
X105399Y-248231D01*
X105468Y-248166D01*
X105530Y-248104D01*
X105588Y-248045D01*
X105639Y-247991D01*
X105687Y-247944D01*
X105727Y-247900D01*
X105763Y-247864D01*
X105792Y-247831D01*
X105818Y-247802D01*
X105839Y-247776D01*
X105854Y-247758D01*
X105865Y-247747D01*
X105869Y-247740D01*
X105872Y-247736D01*
X105963Y-247612D01*
X106043Y-247496D01*
X106109Y-247387D01*
X106138Y-247336D01*
X106163Y-247288D01*
X106185Y-247248D01*
X106203Y-247208D01*
X106222Y-247176D01*
X106236Y-247150D01*
X106244Y-247125D01*
X106251Y-247110D01*
X106258Y-247099D01*
Y-247095D01*
X106298Y-246979D01*
X106331Y-246863D01*
X106353Y-246753D01*
X106367Y-246655D01*
X106371Y-246611D01*
X106375Y-246571D01*
X106378Y-246535D01*
X106382Y-246506D01*
Y-249203D01*
D02*
G37*
G36*
X105818Y-88928D02*
X105913D01*
X105996Y-88932D01*
X106073Y-88935D01*
X106142Y-88939D01*
X106204Y-88946D01*
X106255Y-88950D01*
X106302Y-88953D01*
X106338Y-88961D01*
X106371Y-88964D01*
X106397Y-88968D01*
X106415Y-88972D01*
X106429D01*
X106437Y-88975D01*
X106440D01*
X106542Y-89004D01*
X106637Y-89037D01*
X106717Y-89077D01*
X106786Y-89117D01*
X106841Y-89154D01*
X106863Y-89168D01*
X106881Y-89183D01*
X106895Y-89194D01*
X106906Y-89205D01*
X106910Y-89208D01*
X106914Y-89212D01*
X106979Y-89285D01*
X107037Y-89361D01*
X107085Y-89441D01*
X107128Y-89521D01*
X107157Y-89590D01*
X107172Y-89623D01*
X107183Y-89649D01*
X107190Y-89670D01*
X107197Y-89685D01*
X107201Y-89696D01*
Y-89700D01*
X107219Y-89761D01*
X107238Y-89827D01*
X107248Y-89900D01*
X107263Y-89973D01*
X107281Y-90122D01*
X107289Y-90195D01*
X107292Y-90264D01*
X107299Y-90333D01*
X107303Y-90395D01*
Y-90449D01*
X107307Y-90500D01*
Y-90540D01*
Y-90570D01*
Y-90588D01*
Y-90595D01*
Y-90701D01*
X107303Y-90803D01*
X107296Y-90897D01*
X107292Y-90984D01*
X107281Y-91068D01*
X107274Y-91141D01*
X107263Y-91210D01*
X107256Y-91272D01*
X107245Y-91330D01*
X107234Y-91378D01*
X107227Y-91421D01*
X107219Y-91454D01*
X107212Y-91479D01*
X107205Y-91501D01*
X107201Y-91512D01*
Y-91516D01*
X107183Y-91578D01*
X107161Y-91632D01*
X107139Y-91687D01*
X107117Y-91734D01*
X107096Y-91778D01*
X107074Y-91818D01*
X107052Y-91854D01*
X107030Y-91887D01*
X107012Y-91916D01*
X106994Y-91938D01*
X106975Y-91960D01*
X106965Y-91975D01*
X106950Y-91989D01*
X106943Y-91996D01*
X106939Y-92000D01*
X106935Y-92004D01*
X106870Y-92055D01*
X106801Y-92098D01*
X106735Y-92135D01*
X106670Y-92160D01*
X106611Y-92182D01*
X106586Y-92193D01*
X106564Y-92200D01*
X106550Y-92204D01*
X106535Y-92207D01*
X106528Y-92211D01*
X106524D01*
X106488Y-92218D01*
X106444Y-92226D01*
X106349Y-92237D01*
X106247Y-92248D01*
X106146Y-92251D01*
X106098Y-92255D01*
X106054D01*
X106015Y-92259D01*
X105148D01*
Y-88924D01*
X105716D01*
X105818Y-88928D01*
D02*
G37*
G36*
X106382Y-246447D02*
X106378Y-246338D01*
X106364Y-246233D01*
X106342Y-246131D01*
X106316Y-246036D01*
X106283Y-245949D01*
X106247Y-245865D01*
X106207Y-245792D01*
X106167Y-245723D01*
X106127Y-245661D01*
X106087Y-245603D01*
X106051Y-245559D01*
X106018Y-245519D01*
X105992Y-245486D01*
X105971Y-245465D01*
X105956Y-245450D01*
X105952Y-245446D01*
X105869Y-245374D01*
X105781Y-245312D01*
X105687Y-245261D01*
X105588Y-245214D01*
X105494Y-245174D01*
X105395Y-245141D01*
X105297Y-245115D01*
X105206Y-245093D01*
X105119Y-245075D01*
X105039Y-245064D01*
X104966Y-245053D01*
X104904Y-245050D01*
X104853Y-245046D01*
X104813Y-245042D01*
X106382D01*
Y-246447D01*
D02*
G37*
%LPC*%
G36*
X102725Y-53044D02*
X101644D01*
X100414Y-56771D01*
X99136Y-53044D01*
X98037D01*
X99835Y-58082D01*
X100931D01*
X102725Y-53044D01*
D02*
G37*
%LPD*%
D10*
X44980Y-225000D02*
D03*
Y-216000D02*
D03*
D11*
X84980Y-15000D02*
X89980Y-20000D01*
X84980Y-270000D02*
X89980Y-265000D01*
X29980Y-25000D02*
X39980Y-15000D01*
X84980D01*
X89980Y-150000D02*
Y-20000D01*
Y-150000D02*
X104980Y-165000D01*
Y-180000D02*
Y-165000D01*
X44980Y-247500D02*
X57480Y-260000D01*
X67480Y-270000D02*
X84980D01*
X54980Y-257500D02*
X67480Y-270000D01*
X59980Y-220000D02*
Y-195000D01*
X54980Y-225000D02*
X59980Y-220000D01*
X44980Y-225000D02*
X54980D01*
X89980Y-265000D02*
Y-185000D01*
X94980Y-180000D01*
X99980D01*
X29980Y-225000D02*
Y-200000D01*
X19980Y-235000D02*
X29980Y-225000D01*
Y-200000D02*
Y-160000D01*
X54980Y-135000D01*
Y-120000D01*
X59980Y-90000D02*
Y-75000D01*
X54980Y-95000D02*
X59980Y-90000D01*
X54980Y-120000D02*
Y-95000D01*
X14980Y-120000D02*
X19980Y-125000D01*
X14980Y-130000D02*
X19980Y-135000D01*
X14980Y-140000D02*
X19980Y-145000D01*
X14980Y-150000D02*
X19980Y-155000D01*
X14980Y-160000D02*
X19980Y-165000D01*
X14980Y-170000D02*
X19980Y-175000D01*
X14980Y-180000D02*
X19980Y-185000D01*
X14980Y-190000D02*
X19980Y-195000D01*
X14980Y-200000D02*
X19980Y-205000D01*
X14980Y-210000D02*
X19980Y-215000D01*
X14980Y-220000D02*
X19980Y-225000D01*
X14980Y-230000D02*
X19980Y-235000D01*
X14980Y-240000D02*
X19980Y-245000D01*
X14980Y-250000D02*
X19980Y-255000D01*
X74980Y-250000D02*
X79980Y-255000D01*
X74980Y-240000D02*
X79980Y-245000D01*
X74980Y-230000D02*
X79980Y-235000D01*
X74980Y-220000D02*
X79980Y-225000D01*
X74980Y-120000D02*
X79980Y-125000D01*
X74980Y-130000D02*
X79980Y-135000D01*
X74980Y-140000D02*
X79980Y-145000D01*
X74980Y-150000D02*
X79980Y-155000D01*
X74980Y-160000D02*
X79980Y-165000D01*
X74980Y-170000D02*
X79980Y-175000D01*
X74980Y-180000D02*
X79980Y-185000D01*
X74980Y-210000D02*
X79980Y-215000D01*
X74980Y-200000D02*
X79980Y-205000D01*
X74980Y-190000D02*
X79980Y-195000D01*
X29980Y-200000D02*
X44980Y-216000D01*
X49980Y-185000D02*
X59980Y-195000D01*
X44980Y-247500D02*
Y-225000D01*
X29980Y-75000D02*
Y-25000D01*
D12*
X104980Y-180000D02*
D03*
X99980D02*
D03*
Y-185000D02*
D03*
Y-190000D02*
D03*
Y-195000D02*
D03*
Y-200000D02*
D03*
X104980D02*
D03*
Y-195000D02*
D03*
Y-190000D02*
D03*
Y-185000D02*
D03*
D13*
X49980Y-165000D02*
D03*
Y-175000D02*
D03*
Y-185000D02*
D03*
Y-195000D02*
D03*
X29980Y-245000D02*
D03*
X19980Y-25000D02*
D03*
Y-35000D02*
D03*
Y-45000D02*
D03*
Y-55000D02*
D03*
Y-65000D02*
D03*
Y-75000D02*
D03*
Y-85000D02*
D03*
Y-95000D02*
D03*
Y-105000D02*
D03*
Y-115000D02*
D03*
Y-255000D02*
D03*
Y-245000D02*
D03*
Y-235000D02*
D03*
Y-225000D02*
D03*
Y-215000D02*
D03*
Y-205000D02*
D03*
Y-195000D02*
D03*
Y-185000D02*
D03*
Y-175000D02*
D03*
Y-165000D02*
D03*
Y-155000D02*
D03*
Y-145000D02*
D03*
Y-135000D02*
D03*
Y-125000D02*
D03*
X79980D02*
D03*
Y-135000D02*
D03*
Y-145000D02*
D03*
Y-155000D02*
D03*
Y-165000D02*
D03*
Y-175000D02*
D03*
Y-185000D02*
D03*
Y-195000D02*
D03*
Y-205000D02*
D03*
Y-215000D02*
D03*
Y-225000D02*
D03*
Y-235000D02*
D03*
Y-245000D02*
D03*
Y-255000D02*
D03*
Y-115000D02*
D03*
Y-105000D02*
D03*
Y-95000D02*
D03*
Y-85000D02*
D03*
Y-75000D02*
D03*
Y-65000D02*
D03*
Y-55000D02*
D03*
Y-45000D02*
D03*
Y-35000D02*
D03*
Y-25000D02*
D03*
X69980Y-75000D02*
D03*
X59980D02*
D03*
X49980D02*
D03*
X39980D02*
D03*
X29980D02*
D03*
X67480Y-230000D02*
D03*
Y-220000D02*
D03*
Y-210000D02*
D03*
Y-200000D02*
D03*
Y-190000D02*
D03*
X39980Y-195000D02*
D03*
Y-165000D02*
D03*
Y-175000D02*
D03*
Y-185000D02*
D03*
X74980Y-250000D02*
D03*
Y-240000D02*
D03*
Y-230000D02*
D03*
Y-220000D02*
D03*
Y-210000D02*
D03*
Y-200000D02*
D03*
Y-190000D02*
D03*
Y-180000D02*
D03*
Y-170000D02*
D03*
Y-160000D02*
D03*
Y-150000D02*
D03*
Y-140000D02*
D03*
Y-130000D02*
D03*
Y-120000D02*
D03*
X64980D02*
D03*
X54980D02*
D03*
X44980D02*
D03*
X34980D02*
D03*
X24980D02*
D03*
X14980D02*
D03*
Y-130000D02*
D03*
Y-140000D02*
D03*
Y-150000D02*
D03*
Y-160000D02*
D03*
Y-170000D02*
D03*
Y-180000D02*
D03*
Y-190000D02*
D03*
Y-200000D02*
D03*
Y-210000D02*
D03*
Y-220000D02*
D03*
Y-230000D02*
D03*
Y-240000D02*
D03*
Y-250000D02*
D03*
D14*
X99980Y-120000D02*
D03*
Y-45000D02*
D03*
D15*
Y-110000D02*
D03*
Y-100000D02*
D03*
Y-35000D02*
D03*
Y-25000D02*
D03*
D16*
X109012Y-269642D02*
D03*
Y-9098D02*
D03*
X8980Y-270000D02*
D03*
Y-9000D02*
D03*
M02*
